# xmcd CD database file
#
# Track frame offsets:
#	150
#	10734
#	21764
#	34128
#	56694
#	69058
#	83250
#	110563
#	124592
#	136291
#	149780
#	160834
#	177423
#	188383
#
# Disc length: 2747 seconds
#
# Revision: 0
# Processed by: cddbd v1.5.1PL0 Copyright (c) Steve Scherf et al.
# Submitted via: CDex 1.51
#
DISCID=af0ab90e
DTITLE=Two Blue - The Road
DYEAR=1900
DGENRE=Blues
TTITLE0=I Just Wanna Make Love To You (Muddy Waters)
TTITLE1=I Had My Fun (Traditional)
TTITLE2=Where You Been
TTITLE3=Mean Ole Train (Papa Lightfoot)
TTITLE4=From The Bottom (Sonny Boy Williamson)
TTITLE5=Jumpin' Jack Flash (Rolling Stones)
TTITLE6=The Road
TTITLE7=Hey Looka Here
TTITLE8=Too Late (Willie Dixon)
TTITLE9=Hey Boy
TTITLE10=My Best Girl
TTITLE11=Things I Like To Do
TTITLE12=Mango Millie
TTITLE13=Hangman Blues
EXTD=
EXTT0=
EXTT1=
EXTT2=
EXTT3=
EXTT4=
EXTT5=
EXTT6=
EXTT7=
EXTT8=
EXTT9=
EXTT10=
EXTT11=
EXTT12=
EXTT13=
PLAYORDER=
